<mxfile host="Electron" agent="Mozilla/5.0 (Windows NT 10.0; Win64; x64) AppleWebKit/537.36 (KHTML, like Gecko) draw.io/26.0.9 Chrome/128.0.6613.186 Electron/32.2.5 Safari/537.36" version="26.0.9">
  <diagram name="Страница — 1" id="9p0QI68jBKPmT8K-l8in">
    <mxGraphModel dx="2261" dy="844" grid="1" gridSize="10" guides="1" tooltips="1" connect="1" arrows="1" fold="1" page="1" pageScale="1" pageWidth="827" pageHeight="1169" math="1" shadow="0">
      <root>
        <mxCell id="0" />
        <mxCell id="1" parent="0" />
        <mxCell id="bD4012giYn0vfbwfJBHb-15" value="" style="rounded=1;whiteSpace=wrap;html=1;fillColor=none;strokeColor=#6c8ebf;dashed=1;strokeWidth=3;" vertex="1" parent="1">
          <mxGeometry x="60" y="320" width="530" height="80" as="geometry" />
        </mxCell>
        <mxCell id="bD4012giYn0vfbwfJBHb-17" style="edgeStyle=orthogonalEdgeStyle;curved=1;rounded=0;orthogonalLoop=1;jettySize=auto;html=1;exitX=0.25;exitY=0;exitDx=0;exitDy=0;entryX=1;entryY=0.5;entryDx=0;entryDy=0;endArrow=none;startFill=1;startArrow=classic;" edge="1" parent="1" source="bD4012giYn0vfbwfJBHb-14" target="bD4012giYn0vfbwfJBHb-13">
          <mxGeometry relative="1" as="geometry" />
        </mxCell>
        <mxCell id="bD4012giYn0vfbwfJBHb-14" value="" style="rounded=1;whiteSpace=wrap;html=1;fillColor=none;strokeColor=#82b366;dashed=1;strokeWidth=3;" vertex="1" parent="1">
          <mxGeometry x="200" y="250" width="240" height="60" as="geometry" />
        </mxCell>
        <mxCell id="bD4012giYn0vfbwfJBHb-3" style="edgeStyle=orthogonalEdgeStyle;rounded=0;orthogonalLoop=1;jettySize=auto;html=1;entryX=0;entryY=0.5;entryDx=0;entryDy=0;strokeWidth=3;" edge="1" parent="1" source="xRNSuGFzqD08a6uNSY0O-1" target="xRNSuGFzqD08a6uNSY0O-2">
          <mxGeometry relative="1" as="geometry" />
        </mxCell>
        <mxCell id="xRNSuGFzqD08a6uNSY0O-1" value="$$f_{1}$$" style="ellipse;whiteSpace=wrap;html=1;aspect=fixed;strokeWidth=2;" parent="1" vertex="1">
          <mxGeometry x="120" y="240" width="80" height="80" as="geometry" />
        </mxCell>
        <mxCell id="xRNSuGFzqD08a6uNSY0O-2" value="$$f_{2}$$" style="ellipse;whiteSpace=wrap;html=1;aspect=fixed;strokeWidth=2;" parent="1" vertex="1">
          <mxGeometry x="280" y="240" width="80" height="80" as="geometry" />
        </mxCell>
        <mxCell id="bD4012giYn0vfbwfJBHb-4" style="edgeStyle=orthogonalEdgeStyle;rounded=0;orthogonalLoop=1;jettySize=auto;html=1;entryX=1;entryY=0.5;entryDx=0;entryDy=0;strokeWidth=3;" edge="1" parent="1" source="xRNSuGFzqD08a6uNSY0O-3" target="xRNSuGFzqD08a6uNSY0O-2">
          <mxGeometry relative="1" as="geometry" />
        </mxCell>
        <mxCell id="xRNSuGFzqD08a6uNSY0O-3" value="$$f_{3}$$" style="ellipse;whiteSpace=wrap;html=1;aspect=fixed;strokeWidth=2;" parent="1" vertex="1">
          <mxGeometry x="440" y="240" width="80" height="80" as="geometry" />
        </mxCell>
        <mxCell id="bD4012giYn0vfbwfJBHb-6" style="edgeStyle=orthogonalEdgeStyle;curved=1;rounded=0;orthogonalLoop=1;jettySize=auto;html=1;exitX=0.5;exitY=0;exitDx=0;exitDy=0;entryX=0.5;entryY=1;entryDx=0;entryDy=0;endArrow=none;startFill=0;strokeWidth=3;" edge="1" parent="1" source="xRNSuGFzqD08a6uNSY0O-4" target="xRNSuGFzqD08a6uNSY0O-1">
          <mxGeometry relative="1" as="geometry" />
        </mxCell>
        <mxCell id="xRNSuGFzqD08a6uNSY0O-4" value="$$r_{1}$$" style="ellipse;whiteSpace=wrap;html=1;aspect=fixed;strokeWidth=2;" parent="1" vertex="1">
          <mxGeometry x="40" y="400" width="80" height="80" as="geometry" />
        </mxCell>
        <mxCell id="bD4012giYn0vfbwfJBHb-7" style="edgeStyle=orthogonalEdgeStyle;curved=1;rounded=0;orthogonalLoop=1;jettySize=auto;html=1;exitX=0.5;exitY=0;exitDx=0;exitDy=0;entryX=0.5;entryY=1;entryDx=0;entryDy=0;endArrow=none;startFill=0;strokeWidth=3;" edge="1" parent="1" source="xRNSuGFzqD08a6uNSY0O-5" target="xRNSuGFzqD08a6uNSY0O-1">
          <mxGeometry relative="1" as="geometry" />
        </mxCell>
        <mxCell id="bD4012giYn0vfbwfJBHb-8" style="edgeStyle=orthogonalEdgeStyle;curved=1;rounded=0;orthogonalLoop=1;jettySize=auto;html=1;exitX=0.5;exitY=0;exitDx=0;exitDy=0;entryX=0.5;entryY=1;entryDx=0;entryDy=0;endArrow=none;startFill=0;strokeWidth=3;" edge="1" parent="1" source="xRNSuGFzqD08a6uNSY0O-5" target="xRNSuGFzqD08a6uNSY0O-2">
          <mxGeometry relative="1" as="geometry" />
        </mxCell>
        <mxCell id="xRNSuGFzqD08a6uNSY0O-5" value="$$r_{2}$$" style="ellipse;whiteSpace=wrap;html=1;aspect=fixed;strokeWidth=2;" parent="1" vertex="1">
          <mxGeometry x="200" y="400" width="80" height="80" as="geometry" />
        </mxCell>
        <mxCell id="bD4012giYn0vfbwfJBHb-9" style="edgeStyle=orthogonalEdgeStyle;curved=1;rounded=0;orthogonalLoop=1;jettySize=auto;html=1;exitX=0.5;exitY=0;exitDx=0;exitDy=0;entryX=0.5;entryY=1;entryDx=0;entryDy=0;endArrow=none;startFill=0;strokeWidth=3;" edge="1" parent="1" source="xRNSuGFzqD08a6uNSY0O-6" target="xRNSuGFzqD08a6uNSY0O-2">
          <mxGeometry relative="1" as="geometry" />
        </mxCell>
        <mxCell id="bD4012giYn0vfbwfJBHb-10" style="edgeStyle=orthogonalEdgeStyle;curved=1;rounded=0;orthogonalLoop=1;jettySize=auto;html=1;exitX=0.5;exitY=0;exitDx=0;exitDy=0;entryX=0.5;entryY=1;entryDx=0;entryDy=0;endArrow=none;startFill=0;strokeWidth=3;" edge="1" parent="1" source="xRNSuGFzqD08a6uNSY0O-6" target="xRNSuGFzqD08a6uNSY0O-3">
          <mxGeometry relative="1" as="geometry" />
        </mxCell>
        <mxCell id="xRNSuGFzqD08a6uNSY0O-6" value="$$r_{3}$$" style="ellipse;whiteSpace=wrap;html=1;aspect=fixed;strokeWidth=2;" parent="1" vertex="1">
          <mxGeometry x="360" y="400" width="80" height="80" as="geometry" />
        </mxCell>
        <mxCell id="bD4012giYn0vfbwfJBHb-11" style="edgeStyle=orthogonalEdgeStyle;curved=1;rounded=0;orthogonalLoop=1;jettySize=auto;html=1;exitX=0.5;exitY=0;exitDx=0;exitDy=0;entryX=0.5;entryY=1;entryDx=0;entryDy=0;endArrow=none;startFill=0;strokeWidth=3;" edge="1" parent="1" source="xRNSuGFzqD08a6uNSY0O-7" target="xRNSuGFzqD08a6uNSY0O-3">
          <mxGeometry relative="1" as="geometry" />
        </mxCell>
        <mxCell id="xRNSuGFzqD08a6uNSY0O-7" value="$$r_{4}$$" style="ellipse;whiteSpace=wrap;html=1;aspect=fixed;strokeWidth=2;" parent="1" vertex="1">
          <mxGeometry x="520" y="400" width="80" height="80" as="geometry" />
        </mxCell>
        <mxCell id="bD4012giYn0vfbwfJBHb-1" value="Файлы исходного&amp;nbsp;&lt;div&gt;кода&lt;/div&gt;" style="text;html=1;align=left;verticalAlign=middle;whiteSpace=wrap;rounded=0;fontSize=24;" vertex="1" parent="1">
          <mxGeometry x="535" y="265" width="270" height="30" as="geometry" />
        </mxCell>
        <mxCell id="bD4012giYn0vfbwfJBHb-2" value="Требования" style="text;html=1;align=left;verticalAlign=middle;whiteSpace=wrap;rounded=0;fontSize=24;" vertex="1" parent="1">
          <mxGeometry x="610" y="425" width="60" height="30" as="geometry" />
        </mxCell>
        <mxCell id="bD4012giYn0vfbwfJBHb-13" value="Зависимости между файлами исходного кода (направленная связь)" style="text;html=1;align=left;verticalAlign=middle;whiteSpace=wrap;rounded=0;fontSize=24;" vertex="1" parent="1">
          <mxGeometry x="-180" y="150" width="290" height="30" as="geometry" />
        </mxCell>
        <mxCell id="bD4012giYn0vfbwfJBHb-16" value="Трассируемость требований на файлы исходного кода" style="text;html=1;align=left;verticalAlign=middle;whiteSpace=wrap;rounded=0;fontSize=24;" vertex="1" parent="1">
          <mxGeometry x="-250" y="425" width="270" height="30" as="geometry" />
        </mxCell>
        <mxCell id="bD4012giYn0vfbwfJBHb-18" style="edgeStyle=orthogonalEdgeStyle;curved=1;rounded=0;orthogonalLoop=1;jettySize=auto;html=1;exitX=0;exitY=0.5;exitDx=0;exitDy=0;entryX=0.73;entryY=-0.1;entryDx=0;entryDy=0;entryPerimeter=0;endArrow=none;startFill=1;startArrow=classic;" edge="1" parent="1" source="bD4012giYn0vfbwfJBHb-15" target="bD4012giYn0vfbwfJBHb-16">
          <mxGeometry relative="1" as="geometry" />
        </mxCell>
      </root>
    </mxGraphModel>
  </diagram>
</mxfile>
